# xmcd
#
# Track frame offsets: 
#        150
#        15805
#        30055
#        47605
#        61780
#        81730
#        98530
#        117842
#        134117
#        150020
#        166517
#        180320
#        196595
#        211892
#
# Disc length: 3538 seconds
#
# Revision: 1
# Processed by: cddbd v1.5.2PL0 Copyright (c) Steve Scherf et al.
# Submitted via: ExactAudioCopy v0.99pb5
#
DISCID=910dd00e
DTITLE=Various Artist - Tag des deutschen Schlagers (1987)
DYEAR=1987
DGENRE=Schlager
TTITLE0=Münchener Freiheit - Herz aus Glas
TTITLE1=Juliane Werding - Das Würfelspiel
TTITLE2=Drafi Deutscher - Tief unter meiner Haut
TTITLE3=Hoffmann and Hoffmann - Rücksicht
TTITLE4=Roland Kaiser - Lieb' mich ein letztes Mal
TTITLE5=Nicki - Wenn d'Sehnsucht brennt
TTITLE6=Clowns and Helden - Ich liebe dich
TTITLE7=Howard Carpendale - Hello Again
TTITLE8=Nicki - Einsam ohne di
TTITLE9=Clowns and Helden - Besser
TTITLE10=Nicole - Ein bißchen Frieden
TTITLE11=Thomas and Thomas - Sarah Loreen
TTITLE12=Michael Larsen - Solang' es deine Sehnsucht gibt
TTITLE13=Various Artist - Medley Christian Bruhn "Seine Welt ist die Musik"
EXTD=Pepi
EXTT0=
EXTT1=
EXTT2=
EXTT3=
EXTT4=
EXTT5=
EXTT6=
EXTT7=
EXTT8=
EXTT9=
EXTT10=
EXTT11=
EXTT12=
EXTT13=
PLAYORDER=
